<svg xmlns="http://www.w3.org/2000/svg" viewBox="0 0 48 48" width="48" height="48">
  <!-- 背景圆 -->
  <circle cx="24" cy="24" r="22" fill="#EAF2FC"/>
  <!-- 中心圆 -->
  <circle cx="24" cy="24" r="7" fill="none" stroke="#4A90E2" stroke-width="3"/>
  <!-- 齿轮外环 -->
  <path d="M24,4 C25.1,4 26,4.9 26,6 L26,8.2 C27.7,8.6 29.3,9.3 30.7,10.2 L32.5,8.4 C33.3,7.6 34.6,7.6 35.4,8.4 L39.6,12.6 C40.4,13.4 40.4,14.7 39.6,15.5 L37.8,17.3 C38.7,18.7 39.4,20.3 39.8,22 L42,22 C43.1,22 44,22.9 44,24 C44,25.1 43.1,26 42,26 L39.8,26 C39.4,27.7 38.7,29.3 37.8,30.7 L39.6,32.5 C40.4,33.3 40.4,34.6 39.6,35.4 L35.4,39.6 C34.6,40.4 33.3,40.4 32.5,39.6 L30.7,37.8 C29.3,38.7 27.7,39.4 26,39.8 L26,42 C26,43.1 25.1,44 24,44 C22.9,44 22,43.1 22,42 L22,39.8 C20.3,39.4 18.7,38.7 17.3,37.8 L15.5,39.6 C14.7,40.4 13.4,40.4 12.6,39.6 L8.4,35.4 C7.6,34.6 7.6,33.3 8.4,32.5 L10.2,30.7 C9.3,29.3 8.6,27.7 8.2,26 L6,26 C4.9,26 4,25.1 4,24 C4,22.9 4.9,22 6,22 L8.2,22 C8.6,20.3 9.3,18.7 10.2,17.3 L8.4,15.5 C7.6,14.7 7.6,13.4 8.4,12.6 L12.6,8.4 C13.4,7.6 14.7,7.6 15.5,8.4 L17.3,10.2 C18.7,9.3 20.3,8.6 22,8.2 L22,6 C22,4.9 22.9,4 24,4 Z" fill="none" stroke="#4A90E2" stroke-width="2.8" stroke-linecap="round" stroke-linejoin="round"/>
</svg>
